<?xml version="1.0" encoding="utf-8"?>
<!-- Generator: Adobe Illustrator 27.2.0, SVG Export Plug-In . SVG Version: 6.00 Build 0)  -->
<svg version="1.1" xmlns="http://www.w3.org/2000/svg" xmlns:xlink="http://www.w3.org/1999/xlink" x="0px" y="0px"
	 viewBox="0 0 210 210" style="enable-background:new 0 0 210 210;" xml:space="preserve">
<style type="text/css">
	.st0{fill-rule:evenodd;clip-rule:evenodd;fill:#EA5E5E;}
	.st1{fill-rule:evenodd;clip-rule:evenodd;fill:#F7B93E;}
	.st2{fill-rule:evenodd;clip-rule:evenodd;fill:#56B3B4;}
	.st3{fill-rule:evenodd;clip-rule:evenodd;fill:#BF85BF;}
	.st4{fill:#FFFFFF;stroke:#FFDE00;stroke-width:13;stroke-miterlimit:10;}
	.st5{font-family:'FiraCode-Bold';}
	.st6{font-size:57.6254px;}
	.st7{letter-spacing:-2;}
	.st8{fill:#FFFFFF;}
</style>
<g id="Layer_1">
	<path id="line-11-dash-1" class="st0" d="M5,200h50c2.8,0,5,2.2,5,5l0,0c0,2.8-2.2,5-5,5H5c-2.8,0-5-2.2-5-5l0,0
		C0,202.2,2.2,200,5,200z"/>
	<path id="line-10-dash-2" class="st1" d="M45,180h10c2.8,0,5,2.2,5,5l0,0c0,2.8-2.2,5-5,5H45c-2.8,0-5-2.2-5-5l0,0
		C40,182.2,42.2,180,45,180z"/>
	<path id="line-10-dash-1" class="st2" d="M5,180h20c2.8,0,5,2.2,5,5l0,0c0,2.8-2.2,5-5,5H5c-2.8,0-5-2.2-5-5l0,0
		C0,182.2,2.2,180,5,180z"/>
	<path id="line-9-dash-1" class="st3" d="M5,160h50c2.8,0,5,2.2,5,5l0,0c0,2.8-2.2,5-5,5H5c-2.8,0-5-2.2-5-5l0,0
		C0,162.2,2.2,160,5,160z"/>
	<path id="line-8-dash-2" class="st1" d="M35,140h90c2.8,0,5,2.2,5,5l0,0c0,2.8-2.2,5-5,5H35c-2.8,0-5-2.2-5-5l0,0
		C30,142.2,32.2,140,35,140z"/>
	<path id="line-8-dash-1" class="st3" d="M5,140h10c2.8,0,5,2.2,5,5l0,0c0,2.8-2.2,5-5,5H5c-2.8,0-5-2.2-5-5l0,0
		C0,142.2,2.2,140,5,140z"/>
	<path id="line-7-dash-3" class="st3" d="M125,120h30c2.8,0,5,2.2,5,5l0,0c0,2.8-2.2,5-5,5h-30c-2.8,0-5-2.2-5-5l0,0
		C120,122.2,122.2,120,125,120z"/>
	<path id="line-7-dash-2" class="st0" d="M65,120h40c2.8,0,5,2.2,5,5l0,0c0,2.8-2.2,5-5,5H65c-2.8,0-5-2.2-5-5l0,0
		C60,122.2,62.2,120,65,120z"/>
	<path id="line-7-dash-1" class="st2" d="M5,120h40c2.8,0,5,2.2,5,5l0,0c0,2.8-2.2,5-5,5H5c-2.8,0-5-2.2-5-5l0,0
		C0,122.2,2.2,120,5,120z"/>
	<path id="line-6-dash-3" class="st2" d="M85,100h80c2.8,0,5,2.2,5,5l0,0c0,2.8-2.2,5-5,5H85c-2.8,0-5-2.2-5-5l0,0
		C80,102.2,82.2,100,85,100z"/>
	<path id="line-6-dash-2" class="st1" d="M35,100h30c2.8,0,5,2.2,5,5l0,0c0,2.8-2.2,5-5,5H35c-2.8,0-5-2.2-5-5l0,0
		C30,102.2,32.2,100,35,100z"/>
	<path id="line-6-dash-1" class="st0" d="M5,100h10c2.8,0,5,2.2,5,5l0,0c0,2.8-2.2,5-5,5H5c-2.8,0-5-2.2-5-5l0,0
		C0,102.2,2.2,100,5,100z"/>
	<path id="line-5-dash-3" class="st1" d="M125,80h50c2.8,0,5,2.2,5,5l0,0c0,2.8-2.2,5-5,5h-50c-2.8,0-5-2.2-5-5l0,0
		C120,82.2,122.2,80,125,80z"/>
	<path id="line-5-dash-1" class="st3" d="M5,80h50c2.8,0,5,2.2,5,5l0,0c0,2.8-2.2,5-5,5H5c-2.8,0-5-2.2-5-5l0,0C0,82.2,2.2,80,5,80z
		"/>
	<path id="line-4-dash-4" class="st0" d="M125,60h50c2.8,0,5,2.2,5,5l0,0c0,2.8-2.2,5-5,5h-50c-2.8,0-5-2.2-5-5l0,0
		C120,62.2,122.2,60,125,60z"/>
	<path id="line-4-dash-2" class="st2" d="M45,60h10c2.8,0,5,2.2,5,5l0,0c0,2.8-2.2,5-5,5H45c-2.8,0-5-2.2-5-5l0,0
		C40,62.2,42.2,60,45,60z"/>
	<path id="line-4-dash-1" class="st1" d="M5,60h20c2.8,0,5,2.2,5,5l0,0c0,2.8-2.2,5-5,5H5c-2.8,0-5-2.2-5-5l0,0C0,62.2,2.2,60,5,60z
		"/>
	<path id="line-3-dash-3" class="st2" d="M155,40h10c2.8,0,5,2.2,5,5l0,0c0,2.8-2.2,5-5,5h-10c-2.8,0-5-2.2-5-5l0,0
		C150,42.2,152.2,40,155,40z"/>
	<path id="line-3-dash-2" class="st3" d="M95,40h40c2.8,0,5,2.2,5,5l0,0c0,2.8-2.2,5-5,5H95c-2.8,0-5-2.2-5-5l0,0
		C90,42.2,92.2,40,95,40z"/>
	<path id="line-3-dash-1" class="st2" d="M5,40h70c2.8,0,5,2.2,5,5l0,0c0,2.8-2.2,5-5,5H5c-2.8,0-5-2.2-5-5l0,0C0,42.2,2.2,40,5,40z
		"/>
	<path id="line-2-dash-2" class="st1" d="M55,20h100c2.8,0,5,2.2,5,5l0,0c0,2.8-2.2,5-5,5H55c-2.8,0-5-2.2-5-5l0,0
		C50,22.2,52.2,20,55,20z"/>
	<path id="line-2-dash-1" class="st0" d="M5,20h30c2.8,0,5,2.2,5,5l0,0c0,2.8-2.2,5-5,5H5c-2.8,0-5-2.2-5-5l0,0C0,22.2,2.2,20,5,20z
		"/>
	<path id="line-1-dash-1" class="st2" d="M5,0h120c2.8,0,5,2.2,5,5l0,0c0,2.8-2.2,5-5,5H5c-2.8,0-5-2.2-5-5l0,0C0,2.2,2.2,0,5,0z"/>
</g>
<g id="Layer_2">
	<text transform="matrix(1 0 0 1 96.7176 193.6472)" class="st4 st5 st6 st7">LPC</text>
	<text transform="matrix(1 0 0 1 96.7176 193.6472)" class="st8 st5 st6 st7">LPC</text>
</g>
</svg>
